<?xml version="1.0" encoding="UTF-8"?>
<svg
  id="Ebene_1"
  xmlns="http://www.w3.org/2000/svg"
  viewBox="0 0 512 512"
  fill="currentColor"
>
  <path
    fill="currentColor"
    d="M437.02,74.98C388.67,26.63,324.38,0,256,0S123.33,26.63,74.98,74.98C26.63,123.33,0,187.62,0,256s26.63,132.67,74.98,181.02c48.35,48.35,112.64,74.98,181.02,74.98s132.67-26.63,181.02-74.98c48.35-48.35,74.98-112.64,74.98-181.02s-26.63-132.67-74.98-181.02ZM256,490.02c-129.04,0-234.02-104.98-234.02-234.02S126.96,21.98,256,21.98s234.02,104.98,234.02,234.02-104.98,234.02-234.02,234.02Z"
  />
  <path
    fill="currentColor"
    d="M417.82,221.35c-8.86-8.87-21.11-14.35-34.64-14.35h-136.08l25.48-25.48c19.14-19.13,19.14-50.16,0-69.29-9.56-9.57-22.1-14.35-34.64-14.35s-25.08,4.78-34.65,14.35l-109.12,109.12c-.84.84-1.64,1.7-2.4,2.58-.26.3-.51.59-.76.9-.26.31-.51.62-.76.94-.22.27-.42.54-.63.82-.74.98-1.44,1.99-2.1,3.02-.21.32-.41.65-.61.98-.43.7-.83,1.41-1.22,2.13-.18.32-.35.64-.51.97-.49.95-.94,1.91-1.36,2.89-.14.33-.28.65-.41.98-.15.36-.29.71-.43,1.07,0,.02,0,.04-.02.06-.42,1.1-.79,2.22-1.12,3.36-.1.31-.18.62-.27.94-.03.12-.06.24-.1.37-.09.32-.17.65-.25.97-.09.39-.18.77-.27,1.16-.25,1.14-.46,2.3-.63,3.48-.05.38-.1.77-.15,1.16-.04.37-.08.74-.12,1.1,0,.06-.01.13-.02.2-.08.9-.14,1.82-.17,2.74-.03.6-.04,1.2-.04,1.81v.02c0,.63,0,1.27.04,1.89,0,.15,0,.31.02.46.03.69.08,1.39.14,2.08.05.47.1.95.15,1.44.04.34.08.67.13,1.01.02.07.03.14.03.21.11.76.24,1.52.39,2.27.07.37.14.74.22,1.1,0,.03.02.07.02.1.09.37.17.74.26,1.11.07.26.14.53.2.8.08.29.16.58.24.87.07.22.13.45.2.68.1.36.21.71.33,1.06.12.38.24.76.38,1.13.09.27.19.54.29.82l.36.93c.14.36.29.73.45,1.1.15.37.31.73.48,1.09.16.37.33.73.5,1.08.17.36.35.71.53,1.07.18.35.36.7.55,1.05.19.34.38.69.58,1.03.2.34.4.68.6,1.02.41.67.84,1.33,1.28,1.99.22.32.44.65.67.97s.46.63.69.95l.72.93c.24.31.48.62.74.92.25.3.5.6.76.9.76.88,1.56,1.74,2.4,2.58l109.12,109.12c9.57,9.56,22.11,14.35,34.65,14.35s25.08-4.79,34.64-14.35c19.14-19.13,19.14-50.16,0-69.29l-25.48-25.48h136.08c27.06,0,48.99-21.94,48.99-49,0-13.53-5.48-25.78-14.35-34.64ZM108.32,276.49c-.66-.66-1.28-1.34-1.87-2.06-.3-.36-.59-.72-.86-1.1-.23-.29-.44-.59-.65-.9-.08-.1-.15-.2-.21-.31-.14-.2-.27-.4-.38-.6-.17-.24-.31-.48-.45-.72-.08-.1-.14-.21-.2-.33-.17-.28-.33-.57-.48-.86-.09-.17-.18-.34-.26-.52-.14-.24-.26-.49-.37-.74-.07-.13-.13-.27-.18-.41-.17-.34-.31-.68-.45-1.03-.18-.43-.35-.87-.5-1.32-.16-.44-.31-.88-.43-1.34-1.59-5.38-1.59-11.13,0-16.51.12-.45.26-.9.43-1.34.15-.45.31-.89.5-1.32.15-.39.32-.78.5-1.16.03-.07.06-.13.09-.2.14-.31.29-.61.45-.91.07-.14.14-.29.22-.44.13-.23.25-.46.39-.69.11-.21.23-.41.35-.61.06-.1.12-.2.2-.31.19-.33.4-.65.62-.97.52-.77,1.08-1.51,1.67-2.23.59-.72,1.21-1.4,1.87-2.06h0s27.92-27.94,27.92-27.94l.57-.56,80.62-80.63c11.31-11.3,29.71-11.3,41.01,0,11.31,11.31,11.31,29.7,0,41.01l-39.62,39.62h0l-20,20h184.36c15.98,0,28.99,13.01,28.99,28.99s-13.01,29-28.99,29h-184.36l20,20h0l39.62,39.62c11.31,11.31,11.31,29.7,0,41.01-11.3,11.3-29.7,11.3-41.01,0l-80.62-80.63-.56-.56-27.93-27.93h0Z"
  />
</svg>
