
<svg id="Ebene_1" data-name="Ebene 1" xmlns="http://www.w3.org/2000/svg" viewBox="0 0 512 512">
  <path d="M437.02,74.98C388.67,26.63,324.38,0,256,0S123.33,26.63,74.98,74.98C26.63,123.33,0,187.62,0,256s26.63,132.67,74.98,181.02c48.35,48.35,112.64,74.98,181.02,74.98s132.67-26.63,181.02-74.98c48.35-48.35,74.98-112.64,74.98-181.02s-26.63-132.67-74.98-181.02ZM256,490.02c-129.04,0-234.02-104.98-234.02-234.02S126.96,21.98,256,21.98s234.02,104.98,234.02,234.02-104.98,234.02-234.02,234.02Z"/>
  <path d="M383.18,207h-254.36c-27.06,0-49,21.94-49,49h0c0,27.06,21.94,49,49,49h254.36c27.06,0,49-21.94,49-49h0c0-27.06-21.94-49-49-49ZM383.18,284.99h-254.36c-15.99,0-29-13.01-29-29s13.01-29,29-29h254.36c15.99,0,29,13.01,29,29s-13.01,29-29,29Z"/>
</svg>